<?xml version="1.0" standalone="no"?>
<!DOCTYPE svg PUBLIC "-//W3C//DTD SVG 20010904//EN"
 "http://www.w3.org/TR/2001/REC-SVG-20010904/DTD/svg10.dtd">
<svg version="1.0" xmlns="http://www.w3.org/2000/svg"
 width="134.000000pt" height="134.000000pt" viewBox="0 0 134.000000 134.000000"
 preserveAspectRatio="xMidYMid meet">
<metadata>
Created by potrace 1.14, written by Peter Selinger 2001-2017
</metadata>
<g transform="translate(0.000000,134.000000) scale(0.100000,-0.100000)"
fill="#000000" stroke="none">
<path d="M440 1011 l-205 -118 -1 -229 c0 -126 1 -234 4 -241 5 -15 394 -243
414 -243 9 0 70 31 137 69 66 38 151 86 188 106 37 21 72 41 78 47 10 9 16
449 7 475 -2 7 -34 30 -70 51 -37 21 -129 76 -206 120 -76 45 -139 82 -140 81
0 0 -93 -53 -206 -118z"/>
</g>
</svg>
